<svg xmlns="http://www.w3.org/2000/svg" xmlns:xlink="http://www.w3.org/1999/xlink" width="500" zoomAndPan="magnify" viewBox="0 0 375 374.999991" height="500" preserveAspectRatio="xMidYMid meet" version="1.0"><defs><g/><clipPath id="11b9823255"><rect x="0" width="358" y="0" height="375"/></clipPath><clipPath id="c3f8e8b017"><path d="M 131 169 L 228 169 L 228 232.203125 L 131 232.203125 Z M 131 169 " clip-rule="nonzero"/></clipPath><clipPath id="8aa3dddffe"><path d="M 114.199219 103.953125 L 244.699219 103.953125 L 244.699219 173 L 114.199219 173 Z M 114.199219 103.953125 " clip-rule="nonzero"/></clipPath></defs><g transform="matrix(1, 0, 0, 1, 17, 0)"><g clip-path="url(#11b9823255)"><g fill="#cda647" fill-opacity="1"><g transform="translate(0.26717, 316.166105)"><g><path d="M 305.59375 34.609375 C 288.425781 42.210938 271.539062 46.015625 254.9375 46.015625 C 238.34375 46.015625 223.429688 44.394531 210.203125 41.15625 C 196.972656 37.914062 186.066406 33.972656 177.484375 29.328125 C 168.898438 24.691406 161.441406 19.976562 155.109375 15.1875 C 148.785156 10.40625 144.144531 6.394531 141.1875 3.15625 C 138.238281 -0.0703125 136.90625 -1.6875 137.1875 -1.6875 C 102.851562 -7.875 74.78125 -24.6875 52.96875 -52.125 C 31.164062 -79.5625 20.265625 -113.257812 20.265625 -153.21875 C 20.265625 -199.363281 34.753906 -236.296875 63.734375 -264.015625 C 92.722656 -291.734375 127.335938 -305.59375 167.578125 -305.59375 C 207.816406 -305.59375 242.285156 -291.734375 270.984375 -264.015625 C 299.679688 -236.296875 314.03125 -199.992188 314.03125 -155.109375 C 314.03125 -110.234375 301.789062 -73.722656 277.3125 -45.578125 C 252.832031 -17.441406 221.316406 -1.6875 182.765625 1.6875 C 198.804688 12.382812 222.160156 17.734375 252.828125 17.734375 C 268.867188 17.734375 283.363281 14.914062 296.3125 9.28125 C 299.40625 7.875 301.375 8.4375 302.21875 10.96875 L 308.546875 27.859375 C 309.390625 30.671875 308.40625 32.921875 305.59375 34.609375 Z M 59.9375 -151.953125 C 59.9375 -114.523438 70.628906 -85.257812 92.015625 -64.15625 C 113.398438 -43.050781 138.515625 -32.5 167.359375 -32.5 C 196.203125 -32.5 221.316406 -43.050781 242.703125 -64.15625 C 264.085938 -85.257812 274.78125 -114.59375 274.78125 -152.15625 C 274.78125 -189.726562 263.875 -218.925781 242.0625 -239.75 C 220.257812 -260.570312 195.429688 -270.984375 167.578125 -270.984375 C 140.554688 -270.984375 116.351562 -261.414062 94.96875 -242.28125 C 84.5625 -232.71875 76.117188 -220.125 69.640625 -204.5 C 63.171875 -188.882812 59.9375 -171.367188 59.9375 -151.953125 Z M 59.9375 -151.953125 "/></g></g></g></g></g><path fill="#cda647" d="M 224.523438 138.949219 L 219.941406 138.949219 L 219.941406 109.503906 L 204.664062 109.503906 L 204.664062 119.257812 L 200.085938 119.257812 L 200.085938 104.921875 L 224.523438 104.921875 L 224.523438 138.949219 " fill-opacity="1" fill-rule="nonzero"/><path fill="#cda647" d="M 212.082031 221.640625 L 207.503906 221.640625 L 207.503906 184.671875 L 188.011719 184.671875 L 188.011719 221.640625 L 183.429688 221.640625 L 183.429688 180.09375 L 212.082031 180.09375 L 212.082031 221.640625 " fill-opacity="1" fill-rule="nonzero"/><g clip-path="url(#c3f8e8b017)"><path fill="#cda647" d="M 227.546875 232.394531 L 131.570312 232.394531 L 131.570312 169.71875 L 136.152344 169.71875 L 136.152344 227.8125 L 222.96875 227.8125 L 222.96875 169.71875 L 227.546875 169.71875 L 227.546875 232.394531 " fill-opacity="1" fill-rule="nonzero"/></g><g clip-path="url(#8aa3dddffe)"><path fill="#cda647" d="M 241.6875 172.308594 L 179.558594 110.445312 L 117.429688 172.308594 L 114.199219 169.0625 L 179.558594 103.980469 L 244.921875 169.0625 L 241.6875 172.308594 " fill-opacity="1" fill-rule="nonzero"/></g><path fill="#cda647" d="M 158.957031 200.90625 L 158.957031 194.222656 L 167.472656 194.222656 L 167.472656 200.90625 Z M 147.003906 194.222656 L 155.519531 194.222656 L 155.519531 200.90625 L 147.003906 200.90625 Z M 155.519531 184.101562 L 155.519531 190.785156 L 147.003906 190.785156 L 147.003906 184.101562 Z M 167.472656 190.785156 L 158.957031 190.785156 L 158.957031 184.101562 L 167.472656 184.101562 Z M 143.570312 180.664062 L 143.570312 204.339844 L 170.910156 204.339844 L 170.910156 180.664062 L 143.570312 180.664062 " fill-opacity="1" fill-rule="nonzero"/></svg>